<?xml version="1.0" encoding="UTF-8" standalone="no"?>
<!DOCTYPE svg PUBLIC "-//W3C//DTD SVG 1.1//EN"
 "http://www.w3.org/Graphics/SVG/1.1/DTD/svg11.dtd">
<!-- Generated by graphviz version 2.40.1 (20161225.0304)
 -->
<!-- Title: video Pages: 1 -->
<svg width="838pt" height="561pt"
 viewBox="0.00 0.00 837.75 561.00" xmlns="http://www.w3.org/2000/svg" xmlns:xlink="http://www.w3.org/1999/xlink">
<g id="graph0" class="graph" transform="scale(1 1) rotate(0) translate(4 557)">
<title>video</title>
<polygon fill="#ffffff" stroke="transparent" points="-4,4 -4,-557 833.755,-557 833.755,4 -4,4"/>
<g id="clust6" class="cluster">
<title>cluster_tool</title>
<polygon fill="none" stroke="#000000" points="649.0099,-8 649.0099,-545 821.755,-545 821.755,-8 649.0099,-8"/>
<text text-anchor="middle" x="735.3824" y="-529.8" font-family="Times,serif" font-size="14.00" fill="#000000">Tools</text>
</g>
<!-- VideoTutorials -->
<g id="node1" class="node">
<title>VideoTutorials</title>
<ellipse fill="none" stroke="#000000" cx="64.8689" cy="-438" rx="64.7382" ry="18"/>
<text text-anchor="middle" x="64.8689" y="-433.8" font-family="Times,serif" font-size="14.00" fill="#000000">Video Tutorials</text>
</g>
<!-- Tools -->
<g id="node2" class="node">
<title>Tools</title>
<ellipse fill="none" stroke="#000000" cx="215.9901" cy="-501" rx="29.7671" ry="18"/>
<text text-anchor="middle" x="215.9901" y="-496.8" font-family="Times,serif" font-size="14.00" fill="#000000">Tools</text>
</g>
<!-- VideoTutorials&#45;&gt;Tools -->
<g id="edge1" class="edge">
<title>VideoTutorials&#45;&gt;Tools</title>
<path fill="none" stroke="#000000" d="M101.0662,-453.0901C125.625,-463.3282 157.8808,-476.7752 181.9668,-486.8163"/>
<polygon fill="#000000" stroke="#000000" points="180.8388,-490.1379 191.4157,-490.7553 183.5324,-483.6769 180.8388,-490.1379"/>
</g>
<!-- Techniques -->
<g id="node3" class="node">
<title>Techniques</title>
<ellipse fill="none" stroke="#000000" cx="215.9901" cy="-411" rx="50.0056" ry="18"/>
<text text-anchor="middle" x="215.9901" y="-406.8" font-family="Times,serif" font-size="14.00" fill="#000000">Techniques</text>
</g>
<!-- VideoTutorials&#45;&gt;Techniques -->
<g id="edge2" class="edge">
<title>VideoTutorials&#45;&gt;Techniques</title>
<path fill="none" stroke="#000000" d="M119.4271,-428.2524C132.9014,-425.845 147.3436,-423.2647 160.8456,-420.8524"/>
<polygon fill="#000000" stroke="#000000" points="161.7272,-424.2504 170.9557,-419.046 160.496,-417.3595 161.7272,-424.2504"/>
</g>
<!-- DUMMY_0 -->
<!-- Tools&#45;&gt;DUMMY_0 -->
<g id="edge13" class="edge">
<title>Tools&#45;&gt;DUMMY_0</title>
<path fill="none" stroke="#000000" d="M245.7804,-501.6883C320.5367,-503.4154 518.6571,-507.9928 638.718,-510.7667"/>
<polygon fill="#000000" stroke="#000000" points="638.9337,-514.2725 649.0119,-511.0045 639.0955,-507.2744 638.9337,-514.2725"/>
</g>
<!-- Video -->
<g id="node4" class="node">
<title>Video</title>
<ellipse fill="none" stroke="#000000" cx="373.8388" cy="-284" rx="31.3854" ry="18"/>
<text text-anchor="middle" x="373.8388" y="-279.8" font-family="Times,serif" font-size="14.00" fill="#000000">Video</text>
</g>
<!-- Techniques&#45;&gt;Video -->
<g id="edge3" class="edge">
<title>Techniques&#45;&gt;Video</title>
<path fill="none" stroke="#000000" d="M236.626,-394.397C265.1632,-371.4369 316.6714,-329.9951 347.8146,-304.9382"/>
<polygon fill="#000000" stroke="#000000" points="350.0476,-307.6339 355.6449,-298.6383 345.6595,-302.18 350.0476,-307.6339"/>
</g>
<!-- Audio -->
<g id="node5" class="node">
<title>Audio</title>
<ellipse fill="none" stroke="#000000" cx="373.8388" cy="-438" rx="32.4324" ry="18"/>
<text text-anchor="middle" x="373.8388" y="-433.8" font-family="Times,serif" font-size="14.00" fill="#000000">Audio</text>
</g>
<!-- Techniques&#45;&gt;Audio -->
<g id="edge4" class="edge">
<title>Techniques&#45;&gt;Audio</title>
<path fill="none" stroke="#000000" d="M261.6465,-418.8095C284.1271,-422.6548 311.0155,-427.2541 332.833,-430.986"/>
<polygon fill="#000000" stroke="#000000" points="332.3326,-434.4511 342.7796,-432.6873 333.5128,-427.5513 332.3326,-434.4511"/>
</g>
<!-- Effort Estimation -->
<g id="node6" class="node">
<title>Effort Estimation</title>
<ellipse fill="none" stroke="#000000" cx="373.8388" cy="-384" rx="71.6932" ry="18"/>
<text text-anchor="middle" x="373.8388" y="-379.8" font-family="Times,serif" font-size="14.00" fill="#000000">Effort Estimation</text>
</g>
<!-- Techniques&#45;&gt;Effort Estimation -->
<g id="edge5" class="edge">
<title>Techniques&#45;&gt;Effort Estimation</title>
<path fill="none" stroke="#000000" d="M261.6465,-403.1905C275.0368,-400.9001 289.991,-398.3422 304.5059,-395.8594"/>
<polygon fill="#000000" stroke="#000000" points="305.1932,-399.2927 314.4599,-394.1568 304.0129,-392.3929 305.1932,-399.2927"/>
</g>
<!-- ScreenCapture -->
<g id="node7" class="node">
<title>ScreenCapture</title>
<ellipse fill="none" stroke="#000000" cx="551.2226" cy="-365" rx="64.245" ry="18"/>
<text text-anchor="middle" x="551.2226" y="-360.8" font-family="Times,serif" font-size="14.00" fill="#000000">Screen Capture</text>
</g>
<!-- Video&#45;&gt;ScreenCapture -->
<g id="edge6" class="edge">
<title>Video&#45;&gt;ScreenCapture</title>
<path fill="none" stroke="#000000" d="M397.037,-296.4547C418.621,-307.8473 451.8176,-324.8746 481.4354,-338 488.2127,-341.0034 495.436,-344.0094 502.5698,-346.8676"/>
<polygon fill="#000000" stroke="#000000" points="501.605,-350.2493 512.1919,-350.6593 504.1714,-343.7367 501.605,-350.2493"/>
</g>
<!-- FiveShot -->
<g id="node8" class="node">
<title>FiveShot</title>
<ellipse fill="none" stroke="#000000" cx="551.2226" cy="-203" rx="69.5752" ry="18"/>
<text text-anchor="middle" x="551.2226" y="-198.8" font-family="Times,serif" font-size="14.00" fill="#000000">5&#45;Shot Sequence</text>
</g>
<!-- Video&#45;&gt;FiveShot -->
<g id="edge7" class="edge">
<title>Video&#45;&gt;FiveShot</title>
<path fill="none" stroke="#000000" d="M397.037,-271.5453C418.621,-260.1527 451.8176,-243.1254 481.4354,-230 487.8192,-227.1709 494.5989,-224.3396 501.3266,-221.6316"/>
<polygon fill="#000000" stroke="#000000" points="503.0833,-224.7007 511.0943,-217.7671 500.508,-218.1916 503.0833,-224.7007"/>
</g>
<!-- BRoll -->
<g id="node9" class="node">
<title>BRoll</title>
<ellipse fill="none" stroke="#000000" cx="551.2226" cy="-257" rx="33.401" ry="18"/>
<text text-anchor="middle" x="551.2226" y="-252.8" font-family="Times,serif" font-size="14.00" fill="#000000">B Roll</text>
</g>
<!-- Video&#45;&gt;BRoll -->
<g id="edge8" class="edge">
<title>Video&#45;&gt;BRoll</title>
<path fill="none" stroke="#000000" d="M404.3322,-279.3585C433.2027,-274.9641 476.8036,-268.3275 509.0088,-263.4255"/>
<polygon fill="#000000" stroke="#000000" points="509.672,-266.8649 519.0315,-261.8999 508.6186,-259.9446 509.672,-266.8649"/>
</g>
<!-- Editing -->
<g id="node10" class="node">
<title>Editing</title>
<ellipse fill="none" stroke="#000000" cx="551.2226" cy="-311" rx="36.2905" ry="18"/>
<text text-anchor="middle" x="551.2226" y="-306.8" font-family="Times,serif" font-size="14.00" fill="#000000">Editing</text>
</g>
<!-- Video&#45;&gt;Editing -->
<g id="edge9" class="edge">
<title>Video&#45;&gt;Editing</title>
<path fill="none" stroke="#000000" d="M404.3322,-288.6415C432.4877,-292.9271 474.6528,-299.3451 506.5952,-304.2072"/>
<polygon fill="#000000" stroke="#000000" points="506.1634,-307.6817 516.5762,-305.7264 507.2168,-300.7614 506.1634,-307.6817"/>
</g>
<!-- Animation -->
<g id="node11" class="node">
<title>Animation</title>
<ellipse fill="none" stroke="#000000" cx="551.2226" cy="-118" rx="47.8668" ry="18"/>
<text text-anchor="middle" x="551.2226" y="-113.8" font-family="Times,serif" font-size="14.00" fill="#000000">Animation</text>
</g>
<!-- Video&#45;&gt;Animation -->
<g id="edge10" class="edge">
<title>Video&#45;&gt;Animation</title>
<path fill="none" stroke="#000000" d="M388.7193,-268.1567C409.0863,-246.6853 447.0468,-207.4215 481.4354,-176 494.6011,-163.9702 509.7693,-151.2382 522.5945,-140.7774"/>
<polygon fill="#000000" stroke="#000000" points="525.0717,-143.2751 530.6396,-134.2612 520.6659,-137.8355 525.0717,-143.2751"/>
</g>
<!-- RoomTone -->
<g id="node12" class="node">
<title>RoomTone</title>
<ellipse fill="none" stroke="#000000" cx="551.2226" cy="-474" rx="51.1726" ry="18"/>
<text text-anchor="middle" x="551.2226" y="-469.8" font-family="Times,serif" font-size="14.00" fill="#000000">Room Tone</text>
</g>
<!-- Audio&#45;&gt;RoomTone -->
<g id="edge11" class="edge">
<title>Audio&#45;&gt;RoomTone</title>
<path fill="none" stroke="#000000" d="M404.3322,-444.1886C429.6069,-449.3181 466.1712,-456.7388 496.4955,-462.8931"/>
<polygon fill="#000000" stroke="#000000" points="496.0185,-466.3676 506.5149,-464.9266 497.4108,-459.5075 496.0185,-466.3676"/>
</g>
<!-- AudioSync -->
<g id="node13" class="node">
<title>AudioSync</title>
<ellipse fill="none" stroke="#000000" cx="551.2226" cy="-420" rx="52.2268" ry="18"/>
<text text-anchor="middle" x="551.2226" y="-415.8" font-family="Times,serif" font-size="14.00" fill="#000000">Audio Sync</text>
</g>
<!-- Audio&#45;&gt;AudioSync -->
<g id="edge12" class="edge">
<title>Audio&#45;&gt;AudioSync</title>
<path fill="none" stroke="#000000" d="M405.5515,-434.782C429.1597,-432.3863 462.1084,-429.0429 490.6994,-426.1416"/>
<polygon fill="#000000" stroke="#000000" points="491.4148,-429.5871 501.0103,-425.0953 490.7081,-422.6228 491.4148,-429.5871"/>
</g>
<!-- OBSStudio -->
<g id="node15" class="node">
<title>OBSStudio</title>
<polygon fill="none" stroke="#000000" points="657.0099,-347 657.0099,-383 813.755,-383 813.755,-347 657.0099,-347"/>
<text text-anchor="middle" x="735.3824" y="-360.8" font-family="Times,serif" font-size="14.00" fill="#000000">Open Broadcaster Studio</text>
</g>
<!-- ScreenCapture&#45;&gt;OBSStudio -->
<g id="edge14" class="edge">
<title>ScreenCapture&#45;&gt;OBSStudio</title>
<path fill="none" stroke="#000000" d="M615.6328,-365C625.6939,-365 636.241,-365 646.7287,-365"/>
<polygon fill="#000000" stroke="#000000" points="646.7479,-368.5001 656.7479,-365 646.7479,-361.5001 646.7479,-368.5001"/>
</g>
<!-- SmartPhone -->
<g id="node16" class="node">
<title>SmartPhone</title>
<polygon fill="none" stroke="#000000" points="691.4117,-237 691.4117,-273 779.3531,-273 779.3531,-237 691.4117,-237"/>
<text text-anchor="middle" x="735.3824" y="-250.8" font-family="Times,serif" font-size="14.00" fill="#000000">Smart Phone</text>
</g>
<!-- FiveShot&#45;&gt;SmartPhone -->
<g id="edge16" class="edge">
<title>FiveShot&#45;&gt;SmartPhone</title>
<path fill="none" stroke="#000000" d="M598.6483,-216.3913C623.9744,-223.5424 655.247,-232.3727 681.4901,-239.7828"/>
<polygon fill="#000000" stroke="#000000" points="680.7041,-243.1976 691.2789,-242.5468 682.6063,-236.461 680.7041,-243.1976"/>
</g>
<!-- OpenShot -->
<g id="node19" class="node">
<title>OpenShot</title>
<polygon fill="none" stroke="#000000" points="699.3824,-292 699.3824,-328 771.3824,-328 771.3824,-292 699.3824,-292"/>
<text text-anchor="middle" x="735.3824" y="-305.8" font-family="Times,serif" font-size="14.00" fill="#000000">OpenShot</text>
</g>
<!-- FiveShot&#45;&gt;OpenShot -->
<g id="edge17" class="edge">
<title>FiveShot&#45;&gt;OpenShot</title>
<path fill="none" stroke="#000000" d="M598.8618,-216.1668C606.8282,-219.7846 614.5809,-224.3271 621.0099,-230 640.6916,-247.3671 628.8524,-265.1873 649.0099,-282 660.407,-291.506 675.1033,-297.807 689.1306,-301.9748"/>
<polygon fill="#000000" stroke="#000000" points="688.6057,-305.457 699.1696,-304.6479 690.4069,-298.6926 688.6057,-305.457"/>
</g>
<!-- Tripod -->
<g id="node23" class="node">
<title>Tripod</title>
<polygon fill="none" stroke="#000000" points="708.3824,-182 708.3824,-218 762.3824,-218 762.3824,-182 708.3824,-182"/>
<text text-anchor="middle" x="735.3824" y="-195.8" font-family="Times,serif" font-size="14.00" fill="#000000">Tripod</text>
</g>
<!-- FiveShot&#45;&gt;Tripod -->
<g id="edge18" class="edge">
<title>FiveShot&#45;&gt;Tripod</title>
<path fill="none" stroke="#000000" d="M621.1081,-201.8616C647.1664,-201.4371 675.7463,-200.9715 697.806,-200.6121"/>
<polygon fill="#000000" stroke="#000000" points="698.1303,-204.1074 708.072,-200.4449 698.0162,-197.1083 698.1303,-204.1074"/>
</g>
<!-- BRoll&#45;&gt;SmartPhone -->
<g id="edge19" class="edge">
<title>BRoll&#45;&gt;SmartPhone</title>
<path fill="none" stroke="#000000" d="M585.0004,-256.6332C611.8686,-256.3414 649.9876,-255.9274 681.1235,-255.5893"/>
<polygon fill="#000000" stroke="#000000" points="681.4272,-259.0863 691.3886,-255.4778 681.3512,-252.0867 681.4272,-259.0863"/>
</g>
<!-- BRoll&#45;&gt;OpenShot -->
<g id="edge20" class="edge">
<title>BRoll&#45;&gt;OpenShot</title>
<path fill="none" stroke="#000000" d="M580.8111,-265.5154C610.1464,-273.9579 655.5039,-287.0115 689.5107,-296.7984"/>
<polygon fill="#000000" stroke="#000000" points="688.6453,-300.1914 699.2233,-299.5936 690.5813,-293.4644 688.6453,-300.1914"/>
</g>
<!-- Editing&#45;&gt;OpenShot -->
<g id="edge15" class="edge">
<title>Editing&#45;&gt;OpenShot</title>
<path fill="none" stroke="#000000" d="M587.6067,-310.8024C616.6134,-310.6449 657.4317,-310.4233 688.821,-310.2528"/>
<polygon fill="#000000" stroke="#000000" points="689.0932,-313.7515 699.074,-310.1972 689.0551,-306.7516 689.0932,-313.7515"/>
</g>
<!-- LatexBeamer -->
<g id="node17" class="node">
<title>LatexBeamer</title>
<polygon fill="none" stroke="#000000" points="684.34,-72 684.34,-108 786.4249,-108 786.4249,-72 684.34,-72"/>
<text text-anchor="middle" x="735.3824" y="-85.8" font-family="Times,serif" font-size="14.00" fill="#000000">LaTeX/Beamer</text>
</g>
<!-- Animation&#45;&gt;LatexBeamer -->
<g id="edge21" class="edge">
<title>Animation&#45;&gt;LatexBeamer</title>
<path fill="none" stroke="#000000" d="M595.8026,-111.222C619.2965,-107.6499 648.4716,-103.2141 674.0646,-99.3229"/>
<polygon fill="#000000" stroke="#000000" points="674.6852,-102.7688 684.0454,-97.8054 673.6329,-95.8484 674.6852,-102.7688"/>
</g>
<!-- GraphvizSvg -->
<g id="node18" class="node">
<title>GraphvizSvg</title>
<polygon fill="none" stroke="#000000" points="684.2511,-17 684.2511,-53 786.5138,-53 786.5138,-17 684.2511,-17"/>
<text text-anchor="middle" x="735.3824" y="-30.8" font-family="Times,serif" font-size="14.00" fill="#000000">GraphViz/SVG</text>
</g>
<!-- Animation&#45;&gt;GraphvizSvg -->
<g id="edge22" class="edge">
<title>Animation&#45;&gt;GraphvizSvg</title>
<path fill="none" stroke="#000000" d="M575.3707,-102.1958C594.707,-90.0332 622.8316,-73.4255 649.0099,-62 657.0655,-58.4841 665.7252,-55.2155 674.3403,-52.2539"/>
<polygon fill="#000000" stroke="#000000" points="675.6248,-55.5154 684.0134,-49.0438 673.42,-48.8717 675.6248,-55.5154"/>
</g>
<!-- Sozi -->
<g id="node20" class="node">
<title>Sozi</title>
<polygon fill="none" stroke="#000000" points="708.3824,-127 708.3824,-163 762.3824,-163 762.3824,-127 708.3824,-127"/>
<text text-anchor="middle" x="735.3824" y="-140.8" font-family="Times,serif" font-size="14.00" fill="#000000">Sozi</text>
</g>
<!-- Animation&#45;&gt;Sozi -->
<g id="edge23" class="edge">
<title>Animation&#45;&gt;Sozi</title>
<path fill="none" stroke="#000000" d="M596.2732,-124.6049C627.4749,-129.1795 668.5248,-135.1979 697.9315,-139.5093"/>
<polygon fill="#000000" stroke="#000000" points="697.797,-143.0269 708.199,-141.0146 698.8125,-136.1009 697.797,-143.0269"/>
</g>
<!-- Microphone -->
<g id="node21" class="node">
<title>Microphone</title>
<polygon fill="none" stroke="#000000" points="693.1686,-457 693.1686,-493 777.5963,-493 777.5963,-457 693.1686,-457"/>
<text text-anchor="middle" x="735.3824" y="-470.8" font-family="Times,serif" font-size="14.00" fill="#000000">Microphone</text>
</g>
<!-- RoomTone&#45;&gt;Microphone -->
<g id="edge24" class="edge">
<title>RoomTone&#45;&gt;Microphone</title>
<path fill="none" stroke="#000000" d="M603.0115,-474.2812C627.977,-474.4168 657.8647,-474.5791 682.9181,-474.7151"/>
<polygon fill="#000000" stroke="#000000" points="682.9537,-478.2153 692.9726,-474.7697 682.9918,-471.2154 682.9537,-478.2153"/>
</g>
<!-- AudioSync&#45;&gt;Microphone -->
<g id="edge25" class="edge">
<title>AudioSync&#45;&gt;Microphone</title>
<path fill="none" stroke="#000000" d="M590.7295,-431.7989C617.7914,-439.881 653.9643,-450.6842 683.3669,-459.4654"/>
<polygon fill="#000000" stroke="#000000" points="682.4723,-462.8509 693.0557,-462.359 684.4755,-456.1436 682.4723,-462.8509"/>
</g>
<!-- Clapper -->
<g id="node22" class="node">
<title>Clapper</title>
<polygon fill="none" stroke="#000000" points="705.2237,-402 705.2237,-438 765.5411,-438 765.5411,-402 705.2237,-402"/>
<text text-anchor="middle" x="735.3824" y="-415.8" font-family="Times,serif" font-size="14.00" fill="#000000">Clapper</text>
</g>
<!-- AudioSync&#45;&gt;Clapper -->
<g id="edge26" class="edge">
<title>AudioSync&#45;&gt;Clapper</title>
<path fill="none" stroke="#000000" d="M603.5028,-420C632.511,-420 668.0448,-420 694.9161,-420"/>
<polygon fill="#000000" stroke="#000000" points="695.1237,-423.5001 705.1237,-420 695.1236,-416.5001 695.1237,-423.5001"/>
</g>
</g>
</svg>
