<?xml version="1.0" encoding="UTF-8" standalone="no"?>
<!DOCTYPE svg PUBLIC "-//W3C//DTD SVG 1.1//EN"
 "http://www.w3.org/Graphics/SVG/1.1/DTD/svg11.dtd">
<!-- Generated by graphviz version 2.40.1 (20161225.0304)
 -->
<!-- Title: sozi Pages: 1 -->
<svg width="629pt" height="45pt"
 viewBox="0.00 0.00 629.06 45.00" xmlns="http://www.w3.org/2000/svg" xmlns:xlink="http://www.w3.org/1999/xlink">
<g id="graph0" class="graph" transform="scale(1 1) rotate(0) translate(4 41)">
<title>sozi</title>
<polygon fill="#ffffff" stroke="transparent" points="-4,4 -4,-41 625.0557,-41 625.0557,4 -4,4"/>
<!-- brain -->
<g id="node1" class="node">
<title>brain</title>
<polygon fill="none" stroke="#000000" points="0,-.5 0,-36.5 54,-36.5 54,-.5 0,-.5"/>
<text text-anchor="middle" x="27" y="-14.3" font-family="Times,serif" font-size="14.00" fill="#000000">brain</text>
</g>
<!-- editor -->
<g id="node2" class="node">
<title>editor</title>
<polygon fill="none" stroke="#000000" points="113.3174,-.5 113.3174,-36.5 167.3174,-36.5 167.3174,-.5 113.3174,-.5"/>
<text text-anchor="middle" x="140.3174" y="-14.3" font-family="Times,serif" font-size="14.00" fill="#000000">editor</text>
</g>
<!-- brain&#45;&gt;editor -->
<g id="edge1" class="edge">
<title>brain&#45;&gt;editor</title>
<path fill="none" stroke="#000000" d="M54.1423,-18.5C68.7518,-18.5 86.9937,-18.5 102.9276,-18.5"/>
<polygon fill="#000000" stroke="#000000" points="103.0038,-22.0001 113.0038,-18.5 103.0037,-15.0001 103.0038,-22.0001"/>
<text text-anchor="middle" x="83.6587" y="-21.3" font-family="Times,serif" font-size="14.00" fill="#000000">idea</text>
</g>
<!-- commandline -->
<g id="node3" class="node">
<title>commandline</title>
<polygon fill="none" stroke="#000000" points="239.0967,-.5 239.0967,-36.5 331.2969,-36.5 331.2969,-.5 239.0967,-.5"/>
<text text-anchor="middle" x="285.1968" y="-14.3" font-family="Times,serif" font-size="14.00" fill="#000000">commandline</text>
</g>
<!-- editor&#45;&gt;commandline -->
<g id="edge2" class="edge">
<title>editor&#45;&gt;commandline</title>
<path fill="none" stroke="#000000" d="M167.5681,-18.5C184.8264,-18.5 207.7822,-18.5 228.8313,-18.5"/>
<polygon fill="#000000" stroke="#000000" points="228.978,-22.0001 238.9779,-18.5 228.9779,-15.0001 228.978,-22.0001"/>
<text text-anchor="middle" x="203.207" y="-21.3" font-family="Times,serif" font-size="14.00" fill="#000000">dotfile</text>
</g>
<!-- sozi -->
<g id="node4" class="node">
<title>sozi</title>
<polygon fill="none" stroke="#000000" points="420.9521,-.5 420.9521,-36.5 474.9521,-36.5 474.9521,-.5 420.9521,-.5"/>
<text text-anchor="middle" x="447.9521" y="-14.3" font-family="Times,serif" font-size="14.00" fill="#000000">sozi</text>
</g>
<!-- commandline&#45;&gt;sozi -->
<g id="edge3" class="edge">
<title>commandline&#45;&gt;sozi</title>
<path fill="none" stroke="#000000" d="M331.4006,-18.5C356.339,-18.5 386.7346,-18.5 410.232,-18.5"/>
<polygon fill="#000000" stroke="#000000" points="410.4983,-22.0001 420.4982,-18.5 410.4982,-15.0001 410.4983,-22.0001"/>
<text text-anchor="middle" x="376.1245" y="-21.3" font-family="Times,serif" font-size="14.00" fill="#000000">svgimage</text>
</g>
<!-- browser -->
<g id="node5" class="node">
<title>browser</title>
<polygon fill="none" stroke="#000000" points="559.959,-.5 559.959,-36.5 621.0557,-36.5 621.0557,-.5 559.959,-.5"/>
<text text-anchor="middle" x="590.5073" y="-14.3" font-family="Times,serif" font-size="14.00" fill="#000000">browser</text>
</g>
<!-- sozi&#45;&gt;browser -->
<g id="edge4" class="edge">
<title>sozi&#45;&gt;browser</title>
<path fill="none" stroke="#000000" d="M475.1012,-18.5C496.1418,-18.5 525.6404,-18.5 549.5468,-18.5"/>
<polygon fill="#000000" stroke="#000000" points="549.7471,-22.0001 559.7471,-18.5 549.747,-15.0001 549.7471,-22.0001"/>
<text text-anchor="middle" x="517.4556" y="-21.3" font-family="Times,serif" font-size="14.00" fill="#000000">htmljson</text>
</g>
</g>
</svg>
