<?xml version="1.0" encoding="UTF-8" standalone="no"?>
<svg
   xmlns:dc="http://purl.org/dc/elements/1.1/"
   xmlns:cc="http://creativecommons.org/ns#"
   xmlns:rdf="http://www.w3.org/1999/02/22-rdf-syntax-ns#"
   xmlns:svg="http://www.w3.org/2000/svg"
   xmlns="http://www.w3.org/2000/svg"
   xmlns:sodipodi="http://sodipodi.sourceforge.net/DTD/sodipodi-0.dtd"
   xmlns:inkscape="http://www.inkscape.org/namespaces/inkscape"
   version="1.1"
   viewBox="0 0 300.8 67.6"
   id="svg3554"
   inkscape:version="0.91 r13725"
   sodipodi:docname="stthomas.svg">
  <metadata
     id="metadata3622">
    <rdf:RDF>
      <cc:Work
         rdf:about="">
        <dc:format>image/svg+xml</dc:format>
        <dc:type
           rdf:resource="http://purl.org/dc/dcmitype/StillImage" />
        <dc:title></dc:title>
      </cc:Work>
    </rdf:RDF>
  </metadata>
  <defs
     id="defs3620" />
  <sodipodi:namedview
     pagecolor="#ffffff"
     bordercolor="#666666"
     borderopacity="1"
     objecttolerance="10"
     gridtolerance="10"
     guidetolerance="10"
     inkscape:pageopacity="0"
     inkscape:pageshadow="2"
     inkscape:window-width="998"
     inkscape:window-height="732"
     id="namedview3618"
     showgrid="false"
     inkscape:zoom="0.91090429"
     inkscape:cx="150.39999"
     inkscape:cy="33.799999"
     inkscape:window-x="0"
     inkscape:window-y="0"
     inkscape:window-maximized="0"
     inkscape:current-layer="svg3554"
     showborder="false"
     inkscape:showpageshadow="false" />
  <!-- viewBox="0 0 250 250"> -->
  <style
     type="text/css"
     id="style3556">
.header__logo {fill:#380755;}
</style>
  <svg
     version="1.1"
     id="svg3624"
     viewBox="0 0 300.8 67.6"
     class="header__logo">
    <g
       id="g3733"
       transform="translate(0,22)">
      <path
         class="divider"
         d="m 137.7,22.3 c 0,-0.6 0.5,-1 1,-1 0.6,0 1,0.5 1,1 0,0.6 -0.5,1 -1,1 0,0 0,0 0,0 -0.6,0 -1,-0.4 -1,-1 m 0,-4.2 c 0,-0.6 0.4,-1 1,-1 0.6,0 1,0.4 1,1 0,0.6 -0.4,1 -1,1 0,0 0,0 0,0 -0.6,0 -1,-0.5 -1,-1 m 0,-4.3 c 0,-0.6 0.5,-1 1,-1 0.5,0 1,0.5 1,1 0,0.5 -0.5,1 -1,1 -0.6,0 -1,-0.5 -1,-1 0,0 0,0 0,0 m 0,-4.3 c 0,-0.6 0.5,-1 1,-1 0.6,0 1,0.5 1,1 0,0.6 -0.5,1 -1,1 0,0 0,0 0,0 -0.6,0 -1,-0.4 -1,-1 0,0 0,0 0,0 m 0,-4.2 c 0,-0.6 0.5,-1 1,-1 0.6,0 1,0.5 1,1 0,0.5 -0.5,1 -1,1 0,0 0,0 0,0 -0.6,0 -1,-0.5 -1,-1 0,0 0,0 0,0"
         id="path3626"
         inkscape:connector-curvature="0" />
      <path
         class="st-thomas"
         d="m 125,16.2 c -1.2,-1.4 -2.9,-2.2 -4.7,-2.1 -2.8,0 -5.1,1.1 -5.1,3.7 0,4.3 7.1,2.7 7.1,4.7 0,0.6 -0.9,1.3 -2.2,1.3 -1.3,0.1 -2.5,-0.4 -3.3,-1.4 l -2.1,1.6 c 1.5,1.5 3.5,2.2 5.5,2.1 2.6,0 5.1,-1.2 5.1,-4 0,-4.3 -7.2,-2.6 -7.2,-4.6 0,-0.7 0.8,-1.1 2.1,-1.1 1.2,-0.1 2.3,0.6 2.9,1.6 l 1.9,-1.8 z m -14.2,5.6 c 0,1.5 -1.7,2.1 -2.9,2.1 -1,0 -1.8,-0.6 -1.8,-1.4 0,-1.1 0.9,-1.4 1.9,-1.6 l 1.5,-0.3 c 0.5,-0.1 0.9,-0.2 1.3,-0.4 l 0,1.6 z m 2.7,-3.9 c 0,-3.3 -2.5,-3.8 -4.9,-3.8 -2.5,0 -4.9,1 -4.9,3.7 l 2.8,0.1 c 0,-1.2 0.5,-1.7 2.1,-1.7 1.2,0 2.2,0.3 2.2,1.5 l 0,0.3 c -1,0.3 -2,0.5 -3,0.7 l -1.2,0.2 c -1.7,0.3 -3.5,1.3 -3.5,3.6 0,2 1.6,3.6 3.6,3.6 0.1,0 0.2,0 0.3,0 1.4,0 2.7,-0.5 3.7,-1.3 0,0.4 0.1,0.7 0.3,1 l 2.9,0 c -0.3,-0.6 -0.5,-1.3 -0.4,-1.9 l 0,-6 z m -28.8,8 2.8,0 0,-6 c 0,-1.6 0.9,-3.1 2.4,-3.1 1.3,0 1.9,0.9 1.9,2.2 l 0,7 2.8,0 0,-6 c 0,-1.6 0.9,-3.1 2.5,-3.1 1.3,0 1.9,0.9 1.9,2.2 l 0,7 2.8,0 0,-8.1 c 0,-2.5 -1.5,-3.7 -4,-3.7 -1.4,0 -2.7,0.6 -3.5,1.7 -0.7,-1.2 -2,-1.9 -3.4,-1.7 -1.3,0 -2.5,0.5 -3.3,1.4 l 0,-1.1 -2.8,0 0,11.3 z m -6.9,-9.2 c 2,0 3,1.7 3,3.5 0,1.8 -1,3.5 -3,3.5 -2,0 -3,-1.7 -3,-3.5 0,-1.8 1,-3.5 3,-3.5 z m 0,-2.5 c -3.7,0 -5.9,2.6 -5.9,6 0,3.4 2.2,6 5.9,6 3.7,0 5.9,-2.6 5.9,-6 0,-3.4 -2.2,-6 -5.9,-6 z m -17.7,11.7 2.8,0 0,-5.9 c 0,-1.4 0.6,-3.2 2.7,-3.2 1.4,0 2,0.7 2,2.3 l 0,6.8 2.8,0 0,-7.6 c 0,-3.3 -2.2,-4.1 -4.2,-4.1 -1.3,-0.1 -2.5,0.4 -3.3,1.4 l 0,0 0,-5.8 -2.8,0 0,16.1 z m -8.5,0 3,0 0,-13.3 4.4,0 0,-2.8 -11.9,0 0,2.8 4.4,0 0.1,13.3 z m -7.9,0 3,0 0,-3.1 -3,0 0,3.1 z m -6.5,-11.5 -1.7,0 0,2 1.7,0 0,6.8 c 0,1.7 0.8,2.8 3,2.8 0.7,0 1.5,-0.1 2.2,-0.3 l 0,-2.3 C 42,23.5 41.6,23.5 41.2,23.5 40.1,23.5 40,23 40,22.1 l 0,-5.8 2.5,0 0,-2 -2.5,0 0,-4.1 -2.8,0 0,4.2 z m -16,8.5 c 1.6,2.2 4.2,3.5 7,3.4 3.4,0 7.1,-1.4 7.1,-5.3 0,-3.1 -2.3,-4 -4.7,-4.6 l -2,-0.4 c -1.8,-0.4 -3.3,-0.7 -3.3,-2.1 0,-1.1 1.3,-1.8 3.1,-1.8 1.7,-0.1 3.4,0.8 4.2,2.3 l 2.5,-1.9 C 33.5,10.4 31,9.2 28.4,9.3 c -3,0 -6.3,1.6 -6.3,5 0,3 2.3,3.9 4.8,4.5 l 1.8,0.4 c 2.1,0.5 3.3,0.9 3.3,2.1 0,1.6 -1.9,2.1 -3.4,2.1 -1.9,0.1 -3.8,-0.8 -4.9,-2.4 l -2.5,1.9 z"
         id="path3628"
         inkscape:connector-curvature="0" />
      <path
         d="m 76.2,6.2 0.9,0 0,-2 2,0 0,-0.8 -2,0 0,-1.2 2.3,0 0,-0.8 -3.2,0 0,4.8 z M 72.3,1.3 C 71,1.3 70,2.4 70,3.7 c 0,0.1 0,0.1 0,0.2 -0.1,1.3 0.8,2.4 2.1,2.5 1.3,0.1 2.4,-0.8 2.5,-2.1 0,-0.1 0,-0.3 0,-0.4 C 74.7,2.6 73.7,1.5 72.5,1.4 72.4,1.3 72.3,1.3 72.3,1.3 Z m 0,0.8 c 1,0 1.4,0.8 1.4,1.7 0,0.9 -0.4,1.7 -1.4,1.7 -1,0 -1.4,-0.8 -1.4,-1.7 0,-0.9 0.4,-1.7 1.4,-1.7 z m -7.5,4.1 0.9,0 0,-1.9 1.6,-2.9 -1,0 -1,2 -1,-2 -1,0 1.6,2.9 -0.1,1.9 z m -4.9,0 0.9,0 0,-4 1.3,0 0,-0.8 -3.5,0 0,0.8 1.3,0 0,4 z m -3.7,0 0.9,0 0,-4.8 -0.9,0 0,4.8 z M 50.4,5.3 c 0.5,0.7 1.3,1 2.1,1 1,0 2.1,-0.4 2.1,-1.6 0,-0.9 -0.7,-1.2 -1.4,-1.4 L 52.6,3.2 c -0.5,-0.1 -1,-0.2 -1,-0.6 0,-0.3 0.4,-0.5 0.9,-0.5 0.5,0 1,0.2 1.3,0.7 l 0.7,-0.6 c -0.5,-0.6 -1.2,-1 -2,-1 -0.9,0 -1.9,0.5 -1.9,1.5 0,0.9 0.7,1.2 1.4,1.3 l 0.5,0.1 c 0.6,0.1 1,0.3 1,0.6 0,0.5 -0.6,0.6 -1,0.6 C 51.9,5.3 51.4,5 51,4.6 l -0.6,0.7 z m -3.8,-3.1 0.8,0 c 0.6,0 0.9,0.3 0.9,0.7 0,0.4 -0.3,0.7 -0.7,0.7 0,0 -0.1,0 -0.1,0 l -1,0 0,-1.4 z m -0.9,4 0.9,0 0,-1.8 0.9,0 0.9,1.8 1,0 -1.1,-1.9 c 0.6,-0.2 1,-0.8 1,-1.4 0,-0.8 -0.6,-1.5 -1.4,-1.5 -0.1,0 -0.1,0 -0.2,0 l -2,0 0,4.8 z m -5.1,0 3.6,0 0,-0.8 -2.7,0 0,-1.3 2.3,0 0,-0.8 -2.3,0 0,-1.1 2.5,0 0,-0.8 -3.4,0 0,4.8 z m -4,0 1.2,0 1.4,-4.8 -0.9,0 -1.1,3.8 0,0 -1.1,-3.8 -0.9,0 1.4,4.8 z m -3.7,0 0.9,0 0,-4.8 -0.9,0 0,4.8 z m -5.6,0 0.8,0 0,-3.4 0,0 2,3.4 0.9,0 0,-4.8 -0.8,0 0,3.4 0,0 -2,-3.4 -0.8,0 -0.1,4.8 z m -1.8,-4.8 -0.9,0 0,3.1 c 0,0.6 -0.2,1 -1,1 -0.8,0 -1,-0.4 -1,-1 l 0,-3.1 -0.9,0 0,3.3 c 0,1 0.8,1.6 1.9,1.6 1.1,0 1.9,-0.6 1.9,-1.6 l 0,-3.3 z"
         id="path3630"
         inkscape:connector-curvature="0" />
      <path
         d="m 17.7,11 c -0.2,0 -0.3,0.1 -0.4,0.2 -0.6,0.5 -1.5,0.5 -2.1,0 -0.5,-0.3 -1.1,-0.3 -1.6,0 -0.6,0.5 -1.5,0.5 -2.1,0 -0.5,-0.3 -1.1,-0.3 -1.6,0 -0.2,0.1 -0.3,0.2 -0.5,0.3 l 0,3.5 c -0.2,0 -0.3,0 -0.5,0 -0.2,0 -0.3,0 -0.5,0 l 0,-3.5 C 8.2,11.5 8,11.4 7.9,11.2 7.7,11 7.4,10.9 7.1,10.9 6.8,10.9 6.5,11 6.3,11.2 6,11.4 5.6,11.6 5.2,11.6 4.8,11.6 4.4,11.5 4.1,11.2 4,11 3.7,10.9 3.4,10.9 3.1,10.9 2.8,11 2.6,11.2 2.3,11.4 1.9,11.6 1.5,11.6 1.1,11.6 0.7,11.5 0.5,11.2 0.3,11.1 0.2,11 0,11 c -0.1,2.1 0.1,4.1 0.7,6.1 l 5.4,0 c 0,0.2 0,0.3 0,0.5 0,0.2 0,0.4 0.1,0.5 l -5.1,0 c 1.4,3.5 3.9,6.3 7.2,8.1 l 0,-6 c 0.2,0 0.3,0 0.5,0 0.2,0 0.3,0 0.5,0 l 0,6 c 3.3,-1.7 5.9,-4.6 7.2,-8.1 l -5.1,0 c 0,-0.2 0.1,-0.3 0.1,-0.5 0,-0.2 0,-0.3 0,-0.5 l 5.5,0 c 0.6,-2 0.8,-4 0.7,-6.1 M 5.9,12.7 c 0.2,0.4 0.6,0.7 1,0.9 0.5,0.2 1,0.6 1.2,1.1 0.1,0.1 0.1,0.2 0.2,0.3 C 7.9,15.1 7.4,15.3 7.1,15.6 7,15.5 7,15.3 7,15.2 6.9,14.7 6.7,14.2 6.3,13.8 6.1,13.5 5.9,13.1 5.9,12.7 m 0,3.8 C 5.7,16 5.3,15.7 4.8,15.4 4.5,15.2 4.2,14.9 4.1,14.5 4.4,14.8 4.9,15 5.3,15 c 0.6,0 1.1,0.3 1.5,0.7 0,0 0.1,0.1 0.1,0.1 C 6.6,16.1 6.4,16.6 6.2,17 6.1,16.8 6,16.7 5.9,16.5 M 4,20.6 c 0.4,-0.2 0.7,-0.6 0.9,-1 0.2,-0.5 0.6,-1 1.2,-1.2 0.1,-0.1 0.2,-0.1 0.3,-0.2 0.1,0.4 0.3,0.9 0.7,1.2 -0.2,0.1 -0.3,0.1 -0.5,0.1 -0.5,0.1 -1,0.3 -1.4,0.7 -0.5,0.3 -0.8,0.4 -1.2,0.4 m 3.8,0 C 7.3,20.8 7,21.2 6.7,21.7 6.5,22 6.2,22.3 5.8,22.4 c 0.3,-0.3 0.4,-0.8 0.5,-1.2 0,-0.6 0.3,-1.1 0.7,-1.5 0,0 0.1,-0.1 0.1,-0.1 0.3,0.3 0.8,0.5 1.2,0.6 -0.2,0.2 -0.3,0.3 -0.5,0.4 m 2.1,-6.1 c 0.5,-0.2 0.8,-0.6 1.1,-1.1 0.2,-0.3 0.5,-0.6 0.9,-0.7 -0.3,0.3 -0.4,0.8 -0.5,1.2 0,0.6 -0.3,1.1 -0.7,1.5 0,0 -0.1,0.1 -0.1,0.2 C 10.3,15.3 9.8,15.1 9.4,15 9.6,14.8 9.7,14.7 9.9,14.5 m 1.9,8 C 11.6,22.1 11.2,21.8 10.8,21.6 10.3,21.4 9.8,21 9.6,20.5 9.5,20.4 9.5,20.3 9.4,20.2 c 0.4,-0.1 0.9,-0.3 1.2,-0.6 0.1,0.1 0.1,0.3 0.1,0.4 0.1,0.5 0.3,1 0.7,1.4 0.2,0.3 0.4,0.7 0.4,1.1 m 0,-3.8 c 0.2,0.5 0.6,0.8 1.1,1.1 0.3,0.2 0.6,0.5 0.7,0.9 -0.4,-0.3 -0.8,-0.4 -1.2,-0.5 -0.6,0 -1.1,-0.3 -1.5,-0.7 0,0 -0.1,-0.1 -0.1,-0.1 0.3,-0.3 0.5,-0.7 0.7,-1.2 0.1,0.2 0.2,0.3 0.3,0.5 m 1.1,-3.2 c -0.2,0.5 -0.6,1 -1.2,1.2 -0.1,0.1 -0.2,0.1 -0.3,0.2 -0.1,-0.4 -0.3,-0.8 -0.6,-1.1 l -0.1,-0.1 c 0.2,-0.1 0.3,-0.1 0.5,-0.1 0.5,0 1,-0.3 1.4,-0.7 0.3,-0.2 0.7,-0.4 1.1,-0.4 -0.3,0.3 -0.6,0.6 -0.8,1"
         id="path3632"
         inkscape:connector-curvature="0" />
      <path
         d="m 1.6,10.2 c 0.3,0 0.6,-0.1 0.8,-0.3 0.3,-0.2 0.7,-0.4 1,-0.3 0.4,0 0.7,0.1 1,0.3 0.2,0.2 0.5,0.3 0.8,0.3 0.3,0 0.6,-0.1 0.8,-0.3 0.3,-0.2 0.7,-0.4 1,-0.4 0.4,0 0.7,0.1 1,0.4 0.2,0.2 0.5,0.3 0.8,0.3 l 0,0 0,0 c 0.3,0 0.6,-0.1 0.8,-0.3 0.6,-0.5 1.4,-0.5 2.1,0 0.5,0.3 1.1,0.3 1.6,0 0.6,-0.5 1.4,-0.5 2.1,0 0.5,0.3 1.1,0.3 1.6,0 0.2,-0.2 0.4,-0.3 0.7,-0.3 L 14.9,3.9 C 14.5,4.2 14,4.4 13.5,4.3 12.6,4.3 12.5,3.9 11.1,3.9 10.3,3.8 9.6,4.1 9,4.6 l 0,0 C 8.3,4.1 7.5,3.8 6.8,3.9 5.4,3.9 5.3,4.3 4.4,4.3 3.9,4.4 3.4,4.3 3,3.9 L 0.1,9.6 c 0.3,0 0.5,0.1 0.7,0.3 0.3,0.2 0.5,0.3 0.8,0.3 z m 9.5,-5.3 c 1.3,0 1.5,0.4 2.4,0.4 0.4,0 0.8,0 1.2,-0.2 l 1.6,3.2 c 0,0 -0.2,0.2 -1.5,0.2 -1.3,0 -1.5,-0.7 -3.6,-0.7 -0.6,0 -1.1,0.2 -1.6,0.6 L 8.9,5.6 C 9.5,5.1 10.3,4.8 11.1,4.9 Z m -8,0.2 C 3.5,5.3 3.9,5.3 4.3,5.3 5.2,5.3 5.4,4.9 6.7,4.9 7.5,4.8 8.3,5.1 8.9,5.6 L 8.1,8.5 C 7.7,8.1 7.1,7.9 6.5,7.9 4.5,7.9 4.3,8.6 2.9,8.6 1.5,8.6 1.5,8.4 1.5,8.4 L 3.1,5.1 Z"
         id="path3634"
         inkscape:connector-curvature="0" />
      <g
         class="common-good"
         id="g3636">
        <path
           d="m 137.7,1 c 0,-0.6 0.5,-1 1,-1 0.5,0 1,0.5 1,1 0,0.6 -0.5,1 -1,1 -0.6,0 -1,-0.4 -1,-1 0,0 0,0 0,0"
           id="path3638"
           inkscape:connector-curvature="0" />
        <path
           d="m 137.7,26.6 c 0,-0.6 0.5,-1 1,-1 0.6,0 1,0.5 1,1 0,0.6 -0.5,1 -1,1 0,0 0,0 0,0 -0.6,0 -1,-0.5 -1,-1 0,0 0,0 0,0"
           id="path3640"
           inkscape:connector-curvature="0" />
        <path
           d="m 150.6,19.2 -1,0 3.8,-8.9 0.9,0 3.8,8.9 -1,0 -1,-2.3 -4.6,0 -0.9,2.3 z m 1.3,-3.1 3.9,0 -2,-4.7 -1.9,4.7 z"
           id="path3642"
           inkscape:connector-curvature="0" />
        <rect
           x="159.2"
           y="9.8000002"
           width="0.89999998"
           height="9.5"
           id="rect3644" />
        <rect
           x="162.10001"
           y="9.8000002"
           width="0.89999998"
           height="9.5"
           id="rect3646" />
        <path
           d="m 170.3,14.1 -1.4,0 0,5.1 -0.9,0 0,-5.1 -1.2,0 0,-0.7 1.2,0 0,-1.6 c 0,-1.3 0.7,-2.2 2,-2.2 0.2,0 0.5,0 0.7,0.1 l -0.1,0.8 c -0.2,-0.1 -0.4,-0.1 -0.6,-0.1 -0.9,0 -1.1,0.6 -1.1,1.5 l 0,1.5 1.4,0 0,0.7 z"
           id="path3648"
           inkscape:connector-curvature="0" />
        <path
           d="m 174,19.4 c -1.7,0 -3.1,-1.4 -3,-3.1 0,-1.7 1.4,-3.1 3.1,-3 1.7,0 3,1.4 3,3.1 0,1.7 -1.3,3 -2.9,3.1 -0.1,-0.1 -0.2,-0.1 -0.2,-0.1 m 0,-5.4 c -1.2,0 -2.2,1 -2.2,2.2 0,0.1 0,0.1 0,0.2 -0.1,1.2 0.9,2.3 2.1,2.4 1.2,0.1 2.3,-0.9 2.4,-2.1 0,-0.1 0,-0.2 0,-0.3 0.1,-1.2 -0.8,-2.3 -2.1,-2.4 -0.1,0 -0.2,0 -0.2,0"
           id="path3650"
           inkscape:connector-curvature="0" />
        <path
           d="m 178.6,13.4 0.8,0 c 0,0.3 0.1,0.8 0.1,1 l 0,0 c 0.4,-0.7 1.1,-1.2 1.9,-1.2 0.2,0 0.4,0 0.6,0.1 l -0.1,0.8 C 181.7,14 181.5,14 181.3,14 c -0.9,0 -1.7,0.7 -1.7,2.2 l 0,3 -0.9,0 0,-4.6 c 0,-0.2 0,-0.8 -0.1,-1.2"
           id="path3652"
           inkscape:connector-curvature="0" />
        <path
           d="m 188.4,14.1 -1.7,0 0,3.4 c 0,0.9 0.4,1.1 0.9,1.1 0.3,0 0.5,-0.1 0.7,-0.2 l 0,0.7 c -0.3,0.1 -0.7,0.2 -1,0.2 -0.8,0.1 -1.4,-0.5 -1.5,-1.3 0,-0.1 0,-0.2 0,-0.3 l 0,-3.7 -1.2,0 0,-0.7 1.2,0 0,-1.6 0.9,0 0,1.7 1.7,0 0,0.7 z"
           id="path3654"
           inkscape:connector-curvature="0" />
        <path
           d="m 190.4,14.4 c 0.4,-0.7 1.2,-1.1 2,-1.1 1.2,-0.1 2.2,0.8 2.2,2 0,0.1 0,0.3 0,0.4 l 0,3.6 -0.9,0 0,-3.3 c 0,-1.2 -0.4,-2.1 -1.6,-2.1 -0.9,0 -1.8,0.7 -1.8,2.3 l 0,3 -0.9,0 0,-9.4 0.9,0 0.1,4.6 0,0 z"
           id="path3656"
           inkscape:connector-curvature="0" />
        <path
           d="m 201.9,16.5 -4.9,0 c 0,1.2 1,2.1 2.1,2.1 0.8,0 1.5,-0.4 1.9,-1 l 0.6,0.5 c -0.6,0.8 -1.5,1.3 -2.5,1.2 -1.6,0 -3,-1.3 -3,-2.9 0,-0.1 0,-0.1 0,-0.2 -0.1,-1.6 1.2,-3 2.8,-3.1 0,0 0.1,0 0.1,0 1.5,-0.1 2.7,1.1 2.8,2.6 0,0.1 0,0.2 0,0.3 0.1,0.3 0.1,0.4 0.1,0.5 z M 201,15.9 c 0,-1 -0.8,-1.9 -1.8,-1.9 -0.1,0 -0.1,0 -0.2,0 -1.1,0 -2,0.8 -2.1,1.9 l 4.1,0 z"
           id="path3658"
           inkscape:connector-curvature="0" />
        <path
           d="m 213.8,17.8 c -0.8,1.1 -2,1.7 -3.3,1.7 -2.5,0.1 -4.5,-1.9 -4.6,-4.3 0,-0.1 0,-0.2 0,-0.3 -0.1,-2.5 1.9,-4.6 4.4,-4.7 0.1,0 0.2,0 0.3,0 1.2,0 2.4,0.5 3.2,1.4 l -0.8,0.6 c -0.6,-0.8 -1.5,-1.2 -2.4,-1.2 -2,0 -3.7,1.6 -3.7,3.6 0,0.1 0,0.2 0,0.2 -0.1,2 1.4,3.8 3.5,3.9 0.1,0 0.1,0 0.2,0 1,0 2,-0.5 2.6,-1.3 l 0.6,0.4 z"
           id="path3660"
           inkscape:connector-curvature="0" />
        <path
           d="m 217.6,19.4 c -1.7,0 -3.1,-1.4 -3,-3.1 0.1,-1.7 1.4,-3.1 3.1,-3 1.7,0 3,1.4 3,3.1 0,1.7 -1.3,3 -2.9,3.1 0,-0.1 -0.1,-0.1 -0.2,-0.1 m 0,-5.4 c -1.2,0 -2.2,1 -2.2,2.2 0,0.1 0,0.1 0,0.2 -0.1,1.2 0.9,2.3 2.1,2.3 1.2,0.1 2.3,-0.9 2.3,-2.1 0,-0.1 0,-0.2 0,-0.2 0.1,-1.2 -0.8,-2.3 -2.1,-2.4 0.1,0 0,0 -0.1,0"
           id="path3662"
           inkscape:connector-curvature="0" />
        <path
           d="m 225.1,13.2 c 0.8,0 1.5,0.5 1.8,1.2 0.4,-0.8 1.2,-1.3 2.1,-1.2 1.2,-0.1 2.2,0.8 2.2,2 0,0.1 0,0.3 0,0.4 l 0,3.6 -0.9,0 0,-3.2 c 0,-1.2 -0.4,-2.1 -1.5,-2.1 -1.2,0 -1.7,1.1 -1.7,2.2 l 0,3.1 -0.9,0 0,-3.4 c 0,-1.1 -0.3,-1.9 -1.4,-1.9 -0.8,0 -1.7,0.7 -1.7,2.3 l 0,3 -0.9,0 0,-4.6 c 0,-0.3 0,-0.9 -0.1,-1.3 l 0.8,0 c 0,0.3 0.1,0.7 0.1,1 l 0,0 c 0.6,-0.6 1.3,-1.1 2.1,-1.1"
           id="path3664"
           inkscape:connector-curvature="0" />
        <path
           d="m 235.9,13.2 c 0.8,0 1.5,0.5 1.8,1.2 0.4,-0.8 1.2,-1.3 2.1,-1.2 1.2,-0.1 2.2,0.8 2.2,2 0,0.1 0,0.3 0,0.4 l 0,3.6 -0.9,0 0,-3.2 c 0,-1.2 -0.4,-2.1 -1.5,-2.1 -1.2,0 -1.7,1.1 -1.7,2.2 l 0,3.1 -0.9,0 0,-3.4 c 0,-1.1 -0.3,-1.9 -1.4,-1.9 -0.8,0 -1.7,0.7 -1.7,2.3 l 0,3 -0.9,0 0,-4.6 c 0,-0.3 0,-0.9 -0.1,-1.3 l 0.8,0 c 0,0.3 0.1,0.7 0.1,1 l 0,0 c 0.6,-0.6 1.3,-1.1 2.1,-1.1"
           id="path3666"
           inkscape:connector-curvature="0" />
        <path
           d="m 246.6,19.4 c -1.7,0 -3.1,-1.4 -3,-3.1 0,-1.7 1.4,-3.1 3.1,-3 1.7,0 3,1.4 3,3.1 0,1.7 -1.3,3 -2.9,3.1 0,-0.1 -0.1,-0.1 -0.2,-0.1 m 0,-5.4 c -1.2,0 -2.2,1 -2.2,2.2 0,0.1 0,0.1 0,0.2 -0.1,1.2 0.9,2.3 2.1,2.3 1.2,0.1 2.3,-0.9 2.3,-2.1 0,-0.1 0,-0.2 0,-0.2 0.1,-1.2 -0.8,-2.3 -2.1,-2.4 0,0 0,0 -0.1,0"
           id="path3668"
           inkscape:connector-curvature="0" />
        <path
           d="m 252.1,13.4 c 0,0.3 0.1,0.8 0.1,1 l 0,0 c 0.4,-0.7 1.2,-1.2 2,-1.2 1.2,-0.1 2.2,0.8 2.2,2 0,0.1 0,0.3 0,0.4 l 0,3.6 -0.9,0 0,-3.2 c 0,-1.2 -0.4,-2.1 -1.6,-2.1 -0.9,0 -1.8,0.7 -1.8,2.3 l 0,3 -0.9,0 0,-4.6 c 0,-0.3 0,-0.9 -0.1,-1.3 l 1,0 z"
           id="path3670"
           inkscape:connector-curvature="0" />
        <path
           d="m 268,12 c -0.7,-0.7 -1.6,-1.1 -2.6,-1 -2,0 -3.7,1.6 -3.7,3.6 0,0.1 0,0.1 0,0.2 -0.1,2 1.4,3.7 3.4,3.8 0.1,0 0.2,0 0.2,0 0.8,0 1.7,-0.2 2.4,-0.6 l 0,-2.7 -2.1,0 0,-0.8 3,0 0,4 c -1,0.6 -2.1,0.9 -3.3,0.9 -2.5,0.1 -4.5,-1.9 -4.6,-4.3 0,-0.1 0,-0.2 0,-0.3 -0.1,-2.5 1.9,-4.6 4.4,-4.7 0.1,0 0.2,0 0.3,0 1.2,-0.1 2.3,0.4 3.2,1.2 L 268,12 Z"
           id="path3672"
           inkscape:connector-curvature="0" />
        <path
           d="m 273.4,19.4 c -1.7,0 -3.1,-1.4 -3,-3.1 0.1,-1.7 1.4,-3.1 3.1,-3 1.7,0 3,1.4 3,3.1 0,1.7 -1.3,3 -2.9,3.1 0,-0.1 -0.1,-0.1 -0.2,-0.1 m 0,-5.4 c -1.2,0 -2.2,1 -2.2,2.2 0,0.1 0,0.1 0,0.2 -0.1,1.2 0.9,2.3 2.1,2.4 1.2,0.1 2.3,-0.9 2.4,-2.1 0,-0.1 0,-0.2 0,-0.3 0.1,-1.2 -0.8,-2.3 -2.1,-2.4 -0.1,0 -0.1,0 -0.2,0"
           id="path3674"
           inkscape:connector-curvature="0" />
        <path
           d="m 280.8,19.4 c -1.7,0 -3.1,-1.4 -3,-3.1 0.1,-1.7 1.4,-3.1 3.1,-3 1.7,0 3,1.4 3,3.1 0,1.7 -1.3,3 -2.9,3.1 0,-0.1 -0.1,-0.1 -0.2,-0.1 m 0,-5.4 c -1.2,0 -2.2,1 -2.2,2.2 0,0.1 0,0.1 0,0.2 -0.1,1.2 0.9,2.3 2.1,2.4 1.2,0.1 2.3,-0.9 2.4,-2.1 0,-0.1 0,-0.2 0,-0.3 0.1,-1.2 -0.8,-2.3 -2.1,-2.4 -0.1,0 -0.1,0 -0.2,0"
           id="path3676"
           inkscape:connector-curvature="0" />
        <path
           d="m 288.1,19.4 c -1.6,0 -3,-1.2 -3,-2.9 0,-0.1 0,-0.1 0,-0.2 -0.1,-1.6 1.2,-3 2.8,-3.1 0.1,0 0.1,0 0.2,0 0.9,0 1.7,0.4 2.2,1.2 l 0,0 0,-4.6 0.9,0 0,9.5 -0.9,0 0,-1 0,0 c -0.5,0.7 -1.3,1.1 -2.2,1.1 m 0.1,-0.7 c 1.2,0 2.2,-1 2.3,-2.2 0,0 0,-0.1 0,-0.1 0.1,-1.2 -0.9,-2.3 -2.1,-2.4 0,0 -0.1,0 -0.1,0 -1.2,0 -2.2,0.9 -2.2,2.1 0,0.1 0,0.1 0,0.2 -0.1,1.2 0.8,2.2 2,2.3 0,0.1 0,0.1 0.1,0.1"
           id="path3678"
           inkscape:connector-curvature="0" />
        <polygon
           points="295.9,9.7 295.9,12.8 295.5,12.8 295.5,9.7 294.4,9.7 294.4,9.4 297,9.4 297,9.7 "
           id="polygon3680" />
        <polygon
           points="297.9,9.4 299.1,12.3 299.1,12.3 300.2,9.4 300.8,9.4 300.8,12.8 300.4,12.8 300.4,9.9 300.4,9.9 299.2,12.8 299,12.8 297.8,9.9 297.8,9.9 297.8,12.8 297.4,12.8 297.4,9.4 "
           id="polygon3682" />
      </g>
    </g>
  </svg>
</svg>
